<svg preserveAspectRatio="none" width="100%" height="100%" overflow="visible" style="display: block;" viewBox="0 0 95.3093 23.2462" fill="none" xmlns="http://www.w3.org/2000/svg">
<g id="logos:linkedin" clip-path="url(#clip0_0_226)">
<path id="Vector" d="M37.6131 13.6155L42.8722 19.9252H38.7194L34.039 14.1304V19.9252H30.635V3.32093H34.039V13.0843L38.362 8.30215H42.7019L37.6131 13.6155ZM23.9975 7.97016C23.2522 7.98105 22.5207 8.168 21.8656 8.515C21.2106 8.862 20.6515 9.35872 20.2363 9.96261V8.30215H17.0196V19.9252H20.4234V14.4956C20.3787 14.1015 20.4176 13.7027 20.5377 13.3239C20.6578 12.9451 20.8566 12.5945 21.1216 12.2938C21.3866 11.9932 21.7122 11.7491 22.0782 11.5765C22.4441 11.404 22.8425 11.3068 23.2486 11.2909C25.2229 11.2909 25.5293 13.1838 25.5293 14.4956V19.9252H28.9332V13.765C28.9332 10.1121 27.6907 7.97016 24.0656 7.97016H23.9975ZM54.4624 14.3794C54.4754 14.6227 54.4754 14.8666 54.4624 15.11H45.5271V15.2262C45.6722 15.9187 46.0654 16.538 46.6362 16.9731C47.207 17.4083 47.918 17.6307 48.6418 17.6006C49.2159 17.625 49.7892 17.5361 50.3273 17.3392C50.8654 17.1424 51.3572 16.8416 51.7734 16.455L54.037 18.1155C53.3196 18.8297 52.4566 19.3894 51.5039 19.7583C50.5512 20.1272 49.5298 20.2972 48.5055 20.2574C47.6573 20.3097 46.8075 20.1838 46.0134 19.8882C45.2193 19.5926 44.4995 19.1342 43.9026 18.544C43.3057 17.9537 42.8456 17.2454 42.5533 16.4668C42.261 15.6882 42.1434 14.8574 42.2084 14.0307C42.191 13.2145 42.346 12.4036 42.6639 11.6485C42.9818 10.8934 43.4557 10.2103 44.0561 9.64168C44.6565 9.07308 45.3705 8.63123 46.1536 8.34365C46.9366 8.05607 47.7721 7.92894 48.6077 7.97016C51.8075 7.97016 54.4624 10.1785 54.4624 14.3794ZM51.2969 12.9514C51.2843 12.6225 51.2033 12.2995 51.0587 12.0022C50.9141 11.7048 50.709 11.4393 50.4558 11.2218C50.2026 11.0043 49.9067 10.8394 49.586 10.7371C49.2654 10.6348 48.9268 10.5972 48.5908 10.6268C47.0941 10.4689 45.7388 11.4974 45.5271 12.9514H51.2969ZM3.40396 3.32093H0V19.9252H10.2117V16.6047H3.40396V3.32093ZM64.6742 3.32093H68.078V19.9252H64.8613V18.7629C64.4528 19.2539 63.9323 19.6448 63.3412 19.9043C62.7502 20.1638 62.1051 20.2847 61.4575 20.2574C60.6664 20.2376 59.8878 20.0601 59.1696 19.7359C58.4514 19.4118 57.8087 18.9477 57.2811 18.3723C56.7534 17.7969 56.352 17.1222 56.1014 16.3899C55.8509 15.6575 55.7565 14.8829 55.824 14.1137C55.7437 13.3434 55.8286 12.5651 56.0733 11.8285C56.318 11.092 56.7172 10.4131 57.2455 9.83527C57.7738 9.2574 58.4196 8.79315 59.1418 8.47204C59.864 8.15094 60.6468 7.98002 61.4404 7.97016C62.0315 7.9449 62.6219 8.03465 63.1771 8.2342C63.7323 8.43375 64.2412 8.73911 64.6742 9.13247V3.32093ZM64.9294 14.1137C64.983 13.7303 64.9516 13.3401 64.8374 12.9695C64.7233 12.5989 64.529 12.2565 64.2677 11.9654C64.0064 11.6743 63.6842 11.4412 63.3227 11.2819C62.9613 11.1226 62.569 11.0408 62.1724 11.0419C60.5441 11.1572 59.3103 12.5233 59.3981 14.1137C59.3103 15.7041 60.5441 17.0703 62.1724 17.1856C62.569 17.1868 62.9613 17.1049 63.3228 16.9456C63.6842 16.7863 64.0065 16.5532 64.2678 16.2621C64.5291 15.9709 64.7234 15.6285 64.8375 15.2579C64.9516 14.8873 64.983 14.4971 64.9294 14.1137ZM13.6156 2.98877C13.0683 2.99633 12.5442 3.20625 12.1493 3.57614C11.7545 3.94602 11.5181 4.44831 11.4881 4.98158C11.4881 6.12772 12.4406 7.05703 13.6156 7.05703C14.7906 7.05703 15.7428 6.12754 15.7428 4.98158C15.7127 4.44837 15.4764 3.94615 15.0816 3.57631C14.6867 3.20647 14.1628 2.99656 13.6154 2.98895L13.6156 2.98877ZM11.9137 19.9252H15.3176V8.30215H11.9137V19.9252ZM95.3093 1.66047V21.5857C95.3093 22.0261 95.1299 22.4484 94.8108 22.7598C94.4916 23.0712 94.0587 23.2462 93.6073 23.2462H73.1839C72.7325 23.2462 72.2996 23.0712 71.9804 22.7598C71.6613 22.4484 71.4819 22.0261 71.4819 21.5857V1.66047C71.4819 1.22008 71.6613 0.797737 71.9804 0.486339C72.2996 0.174941 72.7325 0 73.1839 0L93.6073 0C94.0587 0 94.4916 0.174941 94.8108 0.486339C95.1299 0.797737 95.3093 1.22008 95.3093 1.66047ZM78.2897 8.30215H74.8859V19.9252H78.2897V8.30215ZM78.7152 4.9814C78.7152 3.83507 77.7627 2.90577 76.5879 2.90577C75.4129 2.90577 74.4604 3.83507 74.4604 4.9814C74.4604 6.12754 75.4129 7.05684 76.5879 7.05684C77.7627 7.05684 78.7152 6.12754 78.7152 4.9814ZM91.9053 13.765C91.9053 10.1121 90.6629 7.97016 87.0378 7.97016C86.2809 7.97023 85.5357 8.15201 84.8679 8.49949C84.2 8.84696 83.6301 9.34945 83.2083 9.96261V8.30215H79.9916V19.9252H83.3956V14.4956C83.3509 14.1015 83.3898 13.7027 83.51 13.3239C83.6301 12.9451 83.8288 12.5945 84.0939 12.2938C84.3589 11.9932 84.6845 11.7491 85.0504 11.5765C85.4163 11.404 85.8147 11.3068 86.2208 11.2909C88.1951 11.2909 88.5015 13.1838 88.5015 14.4956V19.9252H91.9053V13.765Z" fill="var(--fill-0, #0A66C2)"/>
</g>
<defs>
<clipPath id="clip0_0_226">
<rect width="95.3093" height="23.2462" fill="white"/>
</clipPath>
</defs>
</svg>
