<svg width="118" height="50" viewBox="0 0 118 50" fill="none" xmlns="http://www.w3.org/2000/svg">
<g clip-path="url(#clip0_97_23536)">
<path d="M110.532 21.4102L99.8271 23.9404C97.682 24.4475 95.5165 24.9152 93.335 25.3486C97.7015 25.5817 102.172 25.8861 106.732 26.2754L117.692 27.2109L115.821 49.1309L104.861 48.1953C64.3438 44.7365 34.3997 48.2354 15.2969 48.2354H4.29688V28.2002L0 27.876L1.65625 5.93848L12.625 6.7666C38.6659 8.73193 68.8683 8.65168 94.7666 2.53027L105.472 0L110.532 21.4102Z" fill="#C8C9A3"/>
<path d="M96.6878 43.7354C96.5545 43.7354 96.4345 43.6887 96.3278 43.5954C96.2212 43.4887 96.1678 43.362 96.1678 43.2154V30.2554C96.1678 30.1087 96.2212 29.9887 96.3278 29.8954C96.4345 29.7887 96.5545 29.7354 96.6878 29.7354H99.8678C100.014 29.7354 100.134 29.7887 100.228 29.8954C100.334 29.9887 100.388 30.1087 100.388 30.2554V34.4554L103.368 30.1554C103.434 30.062 103.528 29.9687 103.648 29.8754C103.768 29.782 103.934 29.7354 104.148 29.7354H107.808C107.928 29.7354 108.028 29.782 108.108 29.8754C108.201 29.9554 108.248 30.0554 108.248 30.1754C108.248 30.2553 108.221 30.3287 108.168 30.3954L103.968 36.4354L108.528 43.0754C108.581 43.1287 108.608 43.202 108.608 43.2954C108.608 43.4154 108.561 43.522 108.468 43.6154C108.388 43.6954 108.288 43.7354 108.168 43.7354H104.388C104.134 43.7354 103.941 43.6754 103.808 43.5554C103.688 43.4354 103.614 43.3487 103.588 43.2954L100.388 38.6554V43.2154C100.388 43.362 100.334 43.4887 100.228 43.5954C100.134 43.6887 100.014 43.7354 99.8678 43.7354H96.6878Z" fill="#18181B"/>
<path d="M84.6214 43.7354C84.4881 43.7354 84.3681 43.6887 84.2614 43.5954C84.1547 43.4887 84.1014 43.362 84.1014 43.2154V30.2554C84.1014 30.1087 84.1547 29.9887 84.2614 29.8954C84.3681 29.7887 84.4881 29.7354 84.6214 29.7354H94.4214C94.5681 29.7354 94.6947 29.7887 94.8014 29.8954C94.9081 29.9887 94.9614 30.1087 94.9614 30.2554V32.6154C94.9614 32.7487 94.9081 32.8687 94.8014 32.9754C94.6947 33.082 94.5681 33.1354 94.4214 33.1354H88.2414V35.1154H93.9814C94.1281 35.1154 94.2547 35.1687 94.3614 35.2754C94.4681 35.3687 94.5214 35.4887 94.5214 35.6354V37.7954C94.5214 37.942 94.4681 38.0687 94.3614 38.1754C94.2547 38.2687 94.1281 38.3154 93.9814 38.3154H88.2414V40.3354H94.5814C94.7281 40.3354 94.8547 40.3887 94.9614 40.4954C95.0681 40.602 95.1214 40.7287 95.1214 40.8754V43.2154C95.1214 43.362 95.0681 43.4887 94.9614 43.5954C94.8547 43.6887 94.7281 43.7354 94.5814 43.7354H84.6214Z" fill="#18181B"/>
<path d="M70.4456 43.7354C70.3123 43.7354 70.1923 43.6887 70.0856 43.5954C69.979 43.502 69.9256 43.3754 69.9256 43.2154V30.2554C69.9256 30.1087 69.979 29.9887 70.0856 29.8954C70.1923 29.7887 70.3123 29.7354 70.4456 29.7354H73.7056C73.8523 29.7354 73.9723 29.7887 74.0656 29.8954C74.1723 29.9887 74.2256 30.1087 74.2256 30.2554V34.7754H78.3056V30.2554C78.3056 30.1087 78.3523 29.9887 78.4456 29.8954C78.5523 29.7887 78.679 29.7354 78.8256 29.7354H82.0856C82.2323 29.7354 82.3523 29.7887 82.4456 29.8954C82.5523 29.9887 82.6056 30.1087 82.6056 30.2554V43.2154C82.6056 43.362 82.5523 43.4887 82.4456 43.5954C82.3523 43.6887 82.2323 43.7354 82.0856 43.7354H78.8256C78.679 43.7354 78.5523 43.6887 78.4456 43.5954C78.3523 43.4887 78.3056 43.362 78.3056 43.2154V38.5754H74.2256V43.2154C74.2256 43.362 74.1723 43.4887 74.0656 43.5954C73.9723 43.6887 73.8523 43.7354 73.7056 43.7354H70.4456Z" fill="#18181B"/>
<path d="M62.8719 43.9353C61.4719 43.9353 60.3052 43.742 59.3719 43.3553C58.4519 42.9553 57.7585 42.442 57.2919 41.8153C56.8385 41.1753 56.5985 40.502 56.5719 39.7953C56.5719 39.6753 56.6119 39.5753 56.6919 39.4953C56.7719 39.4153 56.8719 39.3753 56.9919 39.3753H60.1719C60.3585 39.3753 60.5052 39.4087 60.6119 39.4753C60.7185 39.5287 60.8319 39.6087 60.9519 39.7153C61.0719 39.862 61.2119 40.002 61.3719 40.1353C61.5319 40.2553 61.7385 40.3553 61.9919 40.4353C62.2452 40.502 62.5385 40.5353 62.8719 40.5353C63.4852 40.5353 63.9585 40.4553 64.2919 40.2953C64.6252 40.122 64.7919 39.8887 64.7919 39.5953C64.7919 39.3687 64.6985 39.182 64.5119 39.0353C64.3385 38.8887 64.0385 38.7553 63.6119 38.6353C63.1852 38.5153 62.6052 38.3887 61.8719 38.2553C60.8452 38.082 59.9585 37.8287 59.2119 37.4953C58.4652 37.1487 57.8919 36.6887 57.4919 36.1153C57.1052 35.5287 56.9119 34.8087 56.9119 33.9553C56.9119 33.0887 57.1519 32.322 57.6319 31.6553C58.1252 30.9887 58.8052 30.4687 59.6719 30.0953C60.5519 29.722 61.5719 29.5353 62.7319 29.5353C63.6919 29.5353 64.5385 29.662 65.2719 29.9153C66.0185 30.1687 66.6452 30.502 67.1519 30.9153C67.6585 31.3153 68.0452 31.7487 68.3119 32.2153C68.5785 32.682 68.7185 33.1287 68.7319 33.5553C68.7319 33.6753 68.6852 33.782 68.5919 33.8753C68.5119 33.9553 68.4185 33.9953 68.3119 33.9953H64.9719C64.8119 33.9953 64.6719 33.9687 64.5519 33.9153C64.4452 33.862 64.3452 33.7753 64.2519 33.6553C64.1852 33.4687 64.0185 33.302 63.7519 33.1553C63.4852 33.0087 63.1452 32.9353 62.7319 32.9353C62.2785 32.9353 61.9319 33.0153 61.6919 33.1753C61.4519 33.322 61.3319 33.542 61.3319 33.8353C61.3319 34.0353 61.4052 34.2087 61.5519 34.3553C61.6985 34.502 61.9585 34.6353 62.3319 34.7553C62.7052 34.862 63.2252 34.982 63.8919 35.1153C65.1585 35.302 66.1785 35.5687 66.9519 35.9153C67.7385 36.262 68.3119 36.7153 68.6719 37.2753C69.0319 37.8353 69.2119 38.5353 69.2119 39.3753C69.2119 40.322 68.9385 41.1353 68.3919 41.8153C67.8452 42.4953 67.0919 43.022 66.1319 43.3953C65.1852 43.7553 64.0985 43.9353 62.8719 43.9353Z" fill="#18181B"/>
<path d="M51.9378 43.7354C51.8045 43.7354 51.6845 43.6887 51.5778 43.5954C51.4711 43.4887 51.4178 43.362 51.4178 43.2154V30.2554C51.4178 30.1087 51.4711 29.9887 51.5778 29.8954C51.6845 29.7887 51.8045 29.7354 51.9378 29.7354H55.3378C55.4845 29.7354 55.6045 29.7887 55.6978 29.8954C55.8045 29.9887 55.8578 30.1087 55.8578 30.2554V43.2154C55.8578 43.362 55.8045 43.4887 55.6978 43.5954C55.6045 43.6887 55.4845 43.7354 55.3378 43.7354H51.9378Z" fill="#18181B"/>
<path d="M37.762 43.7354C37.6287 43.7354 37.5087 43.6887 37.402 43.5954C37.2954 43.502 37.242 43.3754 37.242 43.2154V30.2554C37.242 30.1087 37.2954 29.9887 37.402 29.8954C37.5087 29.7887 37.6287 29.7354 37.762 29.7354H41.022C41.1687 29.7354 41.2887 29.7887 41.382 29.8954C41.4887 29.9887 41.542 30.1087 41.542 30.2554V34.7754H45.622V30.2554C45.622 30.1087 45.6687 29.9887 45.762 29.8954C45.8687 29.7887 45.9954 29.7354 46.142 29.7354H49.402C49.5487 29.7354 49.6687 29.7887 49.762 29.8954C49.8687 29.9887 49.922 30.1087 49.922 30.2554V43.2154C49.922 43.362 49.8687 43.4887 49.762 43.5954C49.6687 43.6887 49.5487 43.7354 49.402 43.7354H46.142C45.9954 43.7354 45.8687 43.6887 45.762 43.5954C45.6687 43.4887 45.622 43.362 45.622 43.2154V38.5754H41.542V43.2154C41.542 43.362 41.4887 43.4887 41.382 43.5954C41.2887 43.6887 41.1687 43.7354 41.022 43.7354H37.762Z" fill="#18181B"/>
<path d="M24.387 43.7354C24.2537 43.7354 24.1337 43.6887 24.027 43.5954C23.9204 43.4887 23.867 43.362 23.867 43.2154V30.2554C23.867 30.1087 23.9204 29.9887 24.027 29.8954C24.1337 29.7887 24.2537 29.7354 24.387 29.7354H30.767C31.9804 29.7354 32.9737 29.8954 33.747 30.2154C34.5204 30.5354 35.0937 30.9954 35.467 31.5954C35.8404 32.1954 36.027 32.9354 36.027 33.8154C36.027 34.2687 35.9337 34.6754 35.747 35.0354C35.5737 35.382 35.3604 35.6754 35.107 35.9154C34.8537 36.142 34.6137 36.3087 34.387 36.4154C34.907 36.642 35.3604 37.0287 35.747 37.5754C36.1337 38.1087 36.327 38.722 36.327 39.4154C36.327 40.3487 36.1137 41.1354 35.687 41.7754C35.2737 42.4154 34.667 42.902 33.867 43.2354C33.0804 43.5687 32.1137 43.7354 30.967 43.7354H24.387ZM28.167 40.7154H30.507C30.9604 40.7154 31.2937 40.582 31.507 40.3154C31.7204 40.0354 31.827 39.7287 31.827 39.3954C31.827 39.0487 31.7137 38.7487 31.487 38.4954C31.2604 38.2287 30.9337 38.0954 30.507 38.0954H28.167V40.7154ZM28.167 35.1554H30.307C30.7337 35.1554 31.047 35.0354 31.247 34.7954C31.447 34.5554 31.547 34.2754 31.547 33.9554C31.547 33.6354 31.447 33.3554 31.247 33.1154C31.047 32.8754 30.7337 32.7554 30.307 32.7554H28.167V35.1554Z" fill="#18181B"/>
<path d="M9.44 43.7354C9.32 43.7354 9.21333 43.6954 9.12 43.6154C9.04 43.522 9 43.4154 9 43.2954C9 43.242 9.01333 43.1954 9.04 43.1554L13.6 30.3554C13.64 30.2087 13.7267 30.0687 13.86 29.9354C14.0067 29.802 14.2 29.7354 14.44 29.7354H18.1C18.3533 29.7354 18.5467 29.802 18.68 29.9354C18.8133 30.0687 18.9 30.2087 18.94 30.3554L23.52 43.1554C23.5333 43.1954 23.54 43.242 23.54 43.2954C23.54 43.4154 23.4933 43.522 23.4 43.6154C23.32 43.6954 23.22 43.7354 23.1 43.7354H20.02C19.7933 43.7354 19.6267 43.682 19.52 43.5754C19.4133 43.4687 19.34 43.3687 19.3 43.2754L18.68 41.5954H13.86L13.24 43.2754C13.2 43.3687 13.1267 43.4687 13.02 43.5754C12.9267 43.682 12.76 43.7354 12.52 43.7354H9.44ZM14.78 38.2154H17.76L16.26 33.7154L14.78 38.2154Z" fill="#18181B"/>
<path d="M89.1377 27.7354C89.0043 27.7354 88.8977 27.6954 88.8177 27.6154C88.7377 27.5354 88.6977 27.4287 88.6977 27.2954V22.3954L83.8177 14.3954C83.8043 14.3554 83.7843 14.3154 83.7577 14.2754C83.7443 14.2354 83.7377 14.1887 83.7377 14.1354C83.7377 14.0287 83.7777 13.9354 83.8577 13.8554C83.9377 13.7754 84.031 13.7354 84.1377 13.7354H84.5377C84.631 13.7354 84.7177 13.762 84.7977 13.8154C84.8777 13.8554 84.9443 13.9287 84.9977 14.0354L89.3377 21.0954L93.6777 14.0354C93.7443 13.9287 93.811 13.8554 93.8777 13.8154C93.9577 13.762 94.0443 13.7354 94.1377 13.7354H94.5377C94.6443 13.7354 94.7377 13.7754 94.8177 13.8554C94.8977 13.9354 94.9377 14.0287 94.9377 14.1354C94.9377 14.1887 94.931 14.2354 94.9177 14.2754C94.9043 14.3154 94.8843 14.3554 94.8577 14.3954L89.9777 22.3954V27.2954C89.9777 27.4287 89.9377 27.5354 89.8577 27.6154C89.7777 27.6954 89.6643 27.7354 89.5177 27.7354H89.1377Z" fill="#18181B"/>
<path d="M77.1095 27.9354C76.0295 27.9354 75.1029 27.7354 74.3295 27.3354C73.5695 26.9354 72.9829 26.322 72.5695 25.4954C72.1562 24.6687 71.9495 23.6087 71.9495 22.3154V14.1954C71.9495 14.0487 71.9895 13.9354 72.0695 13.8554C72.1495 13.7754 72.2562 13.7354 72.3895 13.7354H72.7495C72.8962 13.7354 73.0095 13.7754 73.0895 13.8554C73.1695 13.9354 73.2095 14.0487 73.2095 14.1954V22.3754C73.2095 23.8687 73.5562 24.9687 74.2495 25.6754C74.9562 26.382 75.9095 26.7354 77.1095 26.7354C78.2962 26.7354 79.2362 26.382 79.9295 25.6754C80.6362 24.9687 80.9895 23.8687 80.9895 22.3754V14.1954C80.9895 14.0487 81.0295 13.9354 81.1095 13.8554C81.2029 13.7754 81.3162 13.7354 81.4495 13.7354H81.8095C81.9429 13.7354 82.0495 13.7754 82.1295 13.8554C82.2095 13.9354 82.2495 14.0487 82.2495 14.1954V22.3154C82.2495 23.6087 82.0429 24.6687 81.6295 25.4954C81.2295 26.322 80.6495 26.9354 79.8895 27.3354C79.1295 27.7354 78.2029 27.9354 77.1095 27.9354Z" fill="#18181B"/>
<path d="M64.5883 27.9353C63.4416 27.9353 62.4749 27.7153 61.6883 27.2753C60.9149 26.822 60.3216 26.1953 59.9083 25.3953C59.5083 24.5953 59.2883 23.6753 59.2483 22.6353C59.2349 22.0353 59.2283 21.402 59.2283 20.7353C59.2283 20.0687 59.2349 19.4353 59.2483 18.8353C59.2883 17.782 59.5083 16.862 59.9083 16.0753C60.3216 15.2753 60.9216 14.6553 61.7083 14.2153C62.4949 13.762 63.4549 13.5353 64.5883 13.5353C65.5083 13.5353 66.2949 13.6753 66.9483 13.9553C67.6016 14.222 68.1349 14.562 68.5483 14.9753C68.9616 15.3753 69.2683 15.782 69.4683 16.1953C69.6683 16.6087 69.7749 16.9553 69.7883 17.2353C69.8016 17.3553 69.7683 17.4553 69.6883 17.5353C69.6083 17.602 69.5016 17.6353 69.3683 17.6353H68.9283C68.8083 17.6353 68.7216 17.6087 68.6683 17.5553C68.6149 17.4887 68.5616 17.382 68.5083 17.2353C68.3749 16.822 68.1483 16.4287 67.8283 16.0553C67.5216 15.6687 67.1016 15.3553 66.5683 15.1153C66.0483 14.862 65.3883 14.7353 64.5883 14.7353C63.4016 14.7353 62.4349 15.062 61.6883 15.7153C60.9549 16.3553 60.5616 17.4287 60.5083 18.9353C60.4683 20.1353 60.4683 21.3353 60.5083 22.5353C60.5616 24.0287 60.9549 25.102 61.6883 25.7553C62.4349 26.4087 63.4016 26.7353 64.5883 26.7353C65.3749 26.7353 66.0816 26.5887 66.7083 26.2953C67.3349 25.9887 67.8283 25.5287 68.1883 24.9153C68.5483 24.2887 68.7283 23.4953 68.7283 22.5353V21.5153H65.2483C65.1149 21.5153 65.0083 21.4753 64.9283 21.3953C64.8483 21.302 64.8083 21.1887 64.8083 21.0553V20.7753C64.8083 20.6287 64.8483 20.5153 64.9283 20.4353C65.0083 20.3553 65.1149 20.3153 65.2483 20.3153H69.5283C69.6749 20.3153 69.7883 20.3553 69.8683 20.4353C69.9483 20.5153 69.9883 20.6287 69.9883 20.7753V22.5353C69.9883 23.602 69.7749 24.542 69.3483 25.3553C68.9349 26.1687 68.3216 26.802 67.5083 27.2553C66.7083 27.7087 65.7349 27.9353 64.5883 27.9353Z" fill="#18181B"/>
<path d="M51.2906 27.7354C51.144 27.7354 51.024 27.6887 50.9306 27.5954C50.8373 27.502 50.7906 27.382 50.7906 27.2354V16.8754H47.2306C47.084 16.8754 46.964 16.8287 46.8706 16.7354C46.7773 16.6287 46.7306 16.5087 46.7306 16.3754V14.2354C46.7306 14.0887 46.7773 13.9687 46.8706 13.8754C46.964 13.782 47.084 13.7354 47.2306 13.7354H57.9906C58.1373 13.7354 58.2573 13.782 58.3506 13.8754C58.444 13.9687 58.4906 14.0887 58.4906 14.2354V16.3754C58.4906 16.5087 58.444 16.6287 58.3506 16.7354C58.2573 16.8287 58.1373 16.8754 57.9906 16.8754H54.4306V27.2354C54.4306 27.382 54.384 27.502 54.2906 27.5954C54.1973 27.6887 54.0773 27.7354 53.9306 27.7354H51.2906Z" fill="#18181B"/>
<path d="M35.02 27.7354C34.9133 27.7354 34.8133 27.6954 34.72 27.6154C34.64 27.522 34.6 27.422 34.6 27.3154C34.6 27.2487 34.6067 27.1887 34.62 27.1354L39.32 14.2954C39.36 14.1487 39.44 14.022 39.56 13.9154C39.6933 13.7954 39.8733 13.7354 40.1 13.7354H43.06C43.2867 13.7354 43.46 13.7954 43.58 13.9154C43.7133 14.022 43.8 14.1487 43.84 14.2954L48.52 27.1354C48.5467 27.1887 48.56 27.2487 48.56 27.3154C48.56 27.422 48.5133 27.522 48.42 27.6154C48.34 27.6954 48.24 27.7354 48.12 27.7354H45.66C45.46 27.7354 45.3067 27.6887 45.2 27.5954C45.1067 27.4887 45.0467 27.3954 45.02 27.3154L44.24 25.2754H38.9L38.14 27.3154C38.1133 27.3954 38.0533 27.4887 37.96 27.5954C37.8667 27.6887 37.7067 27.7354 37.48 27.7354H35.02ZM39.72 22.3954H43.44L41.56 17.1154L39.72 22.3954Z" fill="#18181B"/>
<path d="M22.4177 27.7354C22.271 27.7354 22.151 27.6887 22.0577 27.5954C21.9643 27.502 21.9177 27.382 21.9177 27.2354V14.2354C21.9177 14.0887 21.9643 13.9687 22.0577 13.8754C22.151 13.782 22.271 13.7354 22.4177 13.7354H24.9977C25.1443 13.7354 25.2643 13.782 25.3577 13.8754C25.451 13.9687 25.4977 14.0887 25.4977 14.2354V19.0554H30.4377V14.2354C30.4377 14.0887 30.4843 13.9687 30.5777 13.8754C30.671 13.782 30.791 13.7354 30.9377 13.7354H33.5177C33.6643 13.7354 33.7843 13.782 33.8777 13.8754C33.971 13.9687 34.0177 14.0887 34.0177 14.2354V27.2354C34.0177 27.382 33.971 27.502 33.8777 27.5954C33.7843 27.6887 33.6643 27.7354 33.5177 27.7354H30.9377C30.791 27.7354 30.671 27.6887 30.5777 27.5954C30.4843 27.502 30.4377 27.382 30.4377 27.2354V22.2554H25.4977V27.2354C25.4977 27.382 25.451 27.502 25.3577 27.5954C25.2643 27.6887 25.1443 27.7354 24.9977 27.7354H22.4177Z" fill="#18181B"/>
<path d="M13.9 27.7354C13.7533 27.7354 13.6333 27.6887 13.54 27.5954C13.4467 27.502 13.4 27.382 13.4 27.2354V16.8754H9.84C9.69333 16.8754 9.57333 16.8287 9.48 16.7354C9.38666 16.6287 9.34 16.5087 9.34 16.3754V14.2354C9.34 14.0887 9.38666 13.9687 9.48 13.8754C9.57333 13.782 9.69333 13.7354 9.84 13.7354H20.6C20.7467 13.7354 20.8667 13.782 20.96 13.8754C21.0533 13.9687 21.1 14.0887 21.1 14.2354V16.3754C21.1 16.5087 21.0533 16.6287 20.96 16.7354C20.8667 16.8287 20.7467 16.8754 20.6 16.8754H17.04V27.2354C17.04 27.382 16.9933 27.502 16.9 27.5954C16.8067 27.6887 16.6867 27.7354 16.54 27.7354H13.9Z" fill="#18181B"/>
</g>
<defs>
<clipPath id="clip0_97_23536">
<rect width="117.692" height="49.1309" fill="white"/>
</clipPath>
</defs>
</svg>
